<svg version="1.1" id="Layer_1" xmlns="http://www.w3.org/2000/svg" xmlns:xlink="http://www.w3.org/1999/xlink" x="0px" y="0px"
	 width="100%" viewBox="0 0 98 95" enable-background="new 0 0 98 95" xml:space="preserve">
<path fill="#BF0F6B" opacity="1.000000" stroke="none" 
	d="
M65.000000,96.000000 
	C43.333336,96.000000 22.166674,96.000000 1.000009,96.000000 
	C1.000006,64.333344 1.000006,32.666687 1.000003,1.000021 
	C33.666653,1.000014 66.333305,1.000014 98.999969,1.000007 
	C98.999977,32.666645 98.999977,64.333290 98.999985,95.999969 
	C87.833336,96.000000 76.666664,96.000000 65.000000,96.000000 
M40.199242,90.479485 
	C68.808693,97.810631 93.280869,74.127525 92.243362,48.849201 
	C91.204231,23.531380 66.769035,3.745489 41.874977,9.598803 
	C23.443050,13.932682 9.894624,29.739412 9.201701,47.718189 
	C8.426502,67.831741 20.050526,84.150742 40.199242,90.479485 
z"/>
<path fill="#080708" opacity="1.000000" stroke="none" 
	d="
M39.819611,90.324646 
	C20.050526,84.150742 8.426502,67.831741 9.201701,47.718189 
	C9.894624,29.739412 23.443050,13.932682 41.874977,9.598803 
	C66.769035,3.745489 91.204231,23.531380 92.243362,48.849201 
	C93.280869,74.127525 68.808693,97.810631 39.819611,90.324646 
M23.816607,75.676796 
	C30.336493,82.234161 37.972469,86.463440 47.370373,87.150909 
	C63.248585,88.312408 77.145500,80.707207 84.008186,66.398193 
	C90.856842,52.118431 89.134521,38.370453 78.980507,26.359703 
	C67.879257,13.228507 53.968021,10.372635 39.076756,15.166417 
	C13.030195,23.551298 5.393863,55.517838 23.816607,75.676796 
z"/>
<path fill="#BE106B" opacity="1.000000" stroke="none" 
	d="
M23.564703,75.421036 
	C5.393863,55.517838 13.030195,23.551298 39.076756,15.166417 
	C53.968021,10.372635 67.879257,13.228507 78.980507,26.359703 
	C89.134521,38.370453 90.856842,52.118431 84.008186,66.398193 
	C77.145500,80.707207 63.248585,88.312408 47.370373,87.150909 
	C37.972469,86.463440 30.336493,82.234161 23.564703,75.421036 
M70.428444,62.068928 
	C67.321396,59.878838 64.214348,57.688747 61.121403,55.508595 
	C69.467583,46.236782 70.179497,36.455837 62.931889,29.273077 
	C56.267109,22.667929 45.894867,22.149784 39.205124,28.855265 
	C36.600018,31.466494 34.801342,35.499565 34.021187,39.178841 
	C32.624928,45.763737 35.533092,51.293533 39.953770,54.930519 
	C35.634735,58.866127 31.405081,62.508343 27.437071,66.416237 
	C25.089672,68.728065 25.188379,71.094452 28.518261,72.669319 
	C37.642529,54.777916 62.064926,53.158016 73.020599,72.526833 
	C75.956825,71.199234 76.519569,69.390320 74.347473,66.851433 
	C73.161758,65.465492 72.068230,64.000687 70.428444,62.068928 
z"/>
<path fill="#070607" opacity="1.000000" stroke="none" 
	d="
M70.680786,62.320183 
	C72.068230,64.000687 73.161758,65.465492 74.347473,66.851433 
	C76.519569,69.390320 75.956825,71.199234 73.020599,72.526833 
	C62.064926,53.158016 37.642529,54.777916 28.518261,72.669319 
	C25.188379,71.094452 25.089672,68.728065 27.437071,66.416237 
	C31.405081,62.508343 35.634735,58.866127 39.953770,54.930519 
	C35.533092,51.293533 32.624928,45.763737 34.021187,39.178841 
	C34.801342,35.499565 36.600018,31.466494 39.205124,28.855265 
	C45.894867,22.149784 56.267109,22.667929 62.931889,29.273077 
	C70.179497,36.455837 69.467583,46.236782 61.121403,55.508595 
	C64.214348,57.688747 67.321396,59.878838 70.680786,62.320183 
M38.762226,37.585293 
	C36.914604,45.572857 41.042908,52.682716 48.271019,53.961555 
	C55.447071,55.231182 62.225338,50.221748 63.229542,42.906555 
	C64.040352,37.000149 60.453030,31.230614 54.779022,29.315506 
	C48.390129,27.159109 42.553761,29.932379 38.762226,37.585293 
z"/>
<path fill="#BE106B" opacity="1.000000" stroke="none" 
	d="
M38.866913,37.206009 
	C42.553761,29.932379 48.390129,27.159109 54.779022,29.315506 
	C60.453030,31.230614 64.040352,37.000149 63.229542,42.906555 
	C62.225338,50.221748 55.447071,55.231182 48.271019,53.961555 
	C41.042908,52.682716 36.914604,45.572857 38.866913,37.206009 
z"/>
</svg>