<svg version="1.1" id="Layer_1" xmlns="http://www.w3.org/2000/svg" xmlns:xlink="http://www.w3.org/1999/xlink" x="0px" y="0px"
	 width="100%" viewBox="0 0 87 89" enable-background="new 0 0 87 89" xml:space="preserve">
<path fill="#000000" opacity="1.000000" stroke="none" 
	d="
M49.000000,90.000000 
	C32.666668,90.000000 16.833334,90.000000 1.000000,90.000000 
	C1.000000,60.333332 1.000000,30.666666 1.000000,1.000000 
	C30.000000,1.000000 59.000000,1.000000 88.000000,1.000000 
	C88.000000,30.666666 88.000000,60.333332 88.000000,90.000000 
	C75.166664,90.000000 62.333332,90.000000 49.000000,90.000000 
M54.138016,31.464239 
	C53.329041,25.850107 49.645638,23.044544 43.030243,23.003712 
	C34.653374,22.952007 32.435379,25.892269 30.513680,39.863243 
	C25.825178,39.530155 24.755802,42.340801 24.957809,46.459801 
	C25.152941,50.438519 25.211657,54.448433 24.945335,58.418823 
	C24.639648,62.976063 27.167580,64.815727 31.041222,64.921837 
	C39.011738,65.140175 46.997021,65.146851 54.966953,64.917847 
	C58.815067,64.807281 61.396278,62.980225 61.051800,58.418106 
	C60.789795,54.948162 60.818783,51.430744 61.045193,47.955746 
	C61.341747,43.404129 60.857864,39.594006 55.240582,39.465504 
	C55.015091,36.768005 54.822704,34.466511 54.138016,31.464239 
z"/>
<path fill="#C00E6B" opacity="1.000000" stroke="none" 
	d="
M54.384171,31.814629 
	C54.822704,34.466511 55.015091,36.768005 55.240582,39.465504 
	C60.857864,39.594006 61.341747,43.404129 61.045193,47.955746 
	C60.818783,51.430744 60.789795,54.948162 61.051800,58.418106 
	C61.396278,62.980225 58.815067,64.807281 54.966953,64.917847 
	C46.997021,65.146851 39.011738,65.140175 31.041222,64.921837 
	C27.167580,64.815727 24.639648,62.976063 24.945335,58.418823 
	C25.211657,54.448433 25.152941,50.438519 24.957809,46.459801 
	C24.755802,42.340801 25.825178,39.530155 30.513680,39.863243 
	C32.435379,25.892269 34.653374,22.952007 43.030243,23.003712 
	C49.645638,23.044544 53.329041,25.850107 54.384171,31.814629 
M37.706348,28.922400 
	C33.552734,31.835508 35.174965,35.840160 35.307060,39.595398 
	C40.729740,39.595398 45.771339,39.595398 50.998726,39.595398 
	C50.998726,38.032597 51.011734,36.873814 50.996532,35.715405 
	C50.921062,29.964090 48.964615,27.974062 43.313824,28.018476 
	C41.664730,28.031437 40.017334,28.260326 37.706348,28.922400 
M45.435509,58.901714 
	C46.036922,55.371647 42.621964,51.362850 46.701733,48.118713 
	C46.897865,47.962757 45.769482,45.153347 44.779011,44.747059 
	C43.585358,44.257423 41.675049,44.664860 40.469810,45.364319 
	C39.716656,45.801422 39.086288,48.223053 39.433239,48.511246 
	C43.323280,51.742485 40.554798,55.378635 39.788094,58.987339 
	C41.776634,58.987339 43.252396,58.987339 45.435509,58.901714 
z"/>
<path fill="#000000" opacity="1.000000" stroke="none" 
	d="
M38.037754,28.656322 
	C40.017334,28.260326 41.664730,28.031437 43.313824,28.018476 
	C48.964615,27.974062 50.921062,29.964090 50.996532,35.715405 
	C51.011734,36.873814 50.998726,38.032597 50.998726,39.595398 
	C45.771339,39.595398 40.729740,39.595398 35.307060,39.595398 
	C35.174965,35.840160 33.552734,31.835508 38.037754,28.656322 
z"/>
<path fill="#050506" opacity="1.000000" stroke="none" 
	d="
M45.081833,58.944527 
	C43.252396,58.987339 41.776634,58.987339 39.788094,58.987339 
	C40.554798,55.378635 43.323280,51.742485 39.433239,48.511246 
	C39.086288,48.223053 39.716656,45.801422 40.469810,45.364319 
	C41.675049,44.664860 43.585358,44.257423 44.779011,44.747059 
	C45.769482,45.153347 46.897865,47.962757 46.701733,48.118713 
	C42.621964,51.362850 46.036922,55.371647 45.081833,58.944527 
z"/>
</svg>