<svg version="1.1" id="Layer_1" xmlns="http://www.w3.org/2000/svg" xmlns:xlink="http://www.w3.org/1999/xlink" x="0px" y="0px"
	 width="100%" viewBox="0 0 78 71" enable-background="new 0 0 78 71" xml:space="preserve">
<path fill="#000000" opacity="1.000000" stroke="none" 
	d="
M43.000000,72.000000 
	C28.666670,72.000000 14.833338,72.000000 1.000005,72.000000 
	C1.000004,48.333340 1.000004,24.666679 1.000002,1.000015 
	C26.999990,1.000010 52.999981,1.000010 78.999977,1.000005 
	C78.999985,24.666651 78.999985,48.333302 78.999992,71.999977 
	C67.166664,72.000000 55.333332,72.000000 43.000000,72.000000 
M27.694727,40.983856 
	C25.579666,42.740555 22.968147,44.152241 21.456116,46.328011 
	C18.584620,50.460011 20.703663,53.956993 25.763992,53.986450 
	C33.888420,54.033741 42.013481,54.029335 50.137974,53.987717 
	C54.802673,53.963821 56.403698,51.092342 54.395313,46.925800 
	C50.604160,39.060791 35.715801,36.717400 27.694727,40.983856 
M28.002838,29.314602 
	C29.296356,35.622551 33.160744,38.668499 39.007580,37.988640 
	C43.777134,37.434048 47.322010,33.085876 46.975548,27.957134 
	C46.558548,21.784155 43.222183,19.737196 36.703098,19.078491 
	C32.262318,18.629786 28.550583,22.934692 28.002838,29.314602 
z"/>
<path fill="#C00E6B" opacity="1.000000" stroke="none" 
	d="
M28.086426,40.919159 
	C35.715801,36.717400 50.604160,39.060791 54.395313,46.925800 
	C56.403698,51.092342 54.802673,53.963821 50.137974,53.987717 
	C42.013481,54.029335 33.888420,54.033741 25.763992,53.986450 
	C20.703663,53.956993 18.584620,50.460011 21.456116,46.328011 
	C22.968147,44.152241 25.579666,42.740555 28.086426,40.919159 
z"/>
<path fill="#C00E6B" opacity="1.000000" stroke="none" 
	d="
M28.002014,28.905983 
	C28.550583,22.934692 32.262318,18.629786 36.703098,19.078491 
	C43.222183,19.737196 46.558548,21.784155 46.975548,27.957134 
	C47.322010,33.085876 43.777134,37.434048 39.007580,37.988640 
	C33.160744,38.668499 29.296356,35.622551 28.002014,28.905983 
z"/>
</svg>